{
  "accessors": [
    {
      "bufferView": 2,
      "componentType": 5126,
      "count": 63282,
      "max": [
        1.0,
        1.0,
        59.0
      ],
      "min": [
        -1.0,
        -1.0,
        -1.0
      ],
      "type": "VEC3"
    },
    {
      "bufferView": 2,
      "byteOffset": 759384,
      "componentType": 5126,
      "count": 63282,
      "max": [
        0.9951868653297424,
        0.9951865077018738,
        1.0
      ],
      "min": [
        -0.9951868653297424,
        -0.9951865673065186,
        -1.0
      ],
      "type": "VEC3"
    },
    {
      "bufferView": 1,
      "componentType": 5126,
      "count": 63282,
      "max": [
        1.0,
        1.0
      ],
      "min": [
        0.0,
        0.01000000536441803
      ],
      "type": "VEC2"
    },
    {
      "bufferView": 0,
      "componentType": 5125,
      "count": 97560,
      "type": "SCALAR"
    },
    {
      "bufferView": 2,
      "byteOffset": 1518768,
      "componentType": 5126,
      "count": 15360,
      "max": [
        0.9824281930923462,
        0.9824281334877014,
        58.962669372558594
      ],
      "min": [
        -0.9824280738830566,
        -0.9824281334877014,
        -0.9430229067802429
      ],
      "type": "VEC3"
    },
    {
      "bufferView": 2,
      "byteOffset": 1703088,
      "componentType": 5126,
      "count": 15360,
      "max": [
        0.9951848387718201,
        0.9951848983764648,
        0.0
      ],
      "min": [
        -0.9951848983764648,
        -0.9951848983764648,
        0.0
      ],
      "type": "VEC3"
    },
    {
      "bufferView": 1,
      "byteOffset": 506256,
      "componentType": 5126,
      "count": 15360,
      "max": [
        1.0,
        0.9949719905853271
      ],
      "min": [
        0.0,
        0.5100275278091431
      ],
      "type": "VEC2"
    },
    {
      "bufferView": 0,
      "byteOffset": 390240,
      "componentType": 5125,
      "count": 23040,
      "type": "SCALAR"
    },
    {
      "bufferView": 2,
      "byteOffset": 1887408,
      "componentType": 5126,
      "count": 24,
      "max": [
        1.0,
        1.0,
        75.19709014892578
      ],
      "min": [
        -1.0,
        -1.0,
        -1.0
      ],
      "type": "VEC3"
    },
    {
      "bufferView": 2,
      "byteOffset": 1887696,
      "componentType": 5126,
      "count": 24,
      "max": [
        1.0,
        0.9997740387916565,
        0.9990299344062805
      ],
      "min": [
        -1.0,
        -1.0,
        -1.0
      ],
      "type": "VEC3"
    },
    {
      "bufferView": 1,
      "byteOffset": 629136,
      "componentType": 5126,
      "count": 24,
      "max": [
        0.875,
        1.0
      ],
      "min": [
        0.125,
        0.0
      ],
      "type": "VEC2"
    },
    {
      "bufferView": 0,
      "byteOffset": 482400,
      "componentType": 5125,
      "count": 36,
      "type": "SCALAR"
    },
    {
      "bufferView": 2,
      "byteOffset": 1887984,
      "componentType": 5126,
      "count": 24,
      "max": [
        1.0,
        1.0,
        75.19709014892578
      ],
      "min": [
        -1.0,
        -1.0,
        -1.0
      ],
      "type": "VEC3"
    },
    {
      "bufferView": 2,
      "byteOffset": 1888272,
      "componentType": 5126,
      "count": 24,
      "max": [
        1.0,
        0.9997740387916565,
        0.9990299344062805
      ],
      "min": [
        -1.0,
        -1.0,
        -1.0
      ],
      "type": "VEC3"
    },
    {
      "bufferView": 1,
      "byteOffset": 629328,
      "componentType": 5126,
      "count": 24,
      "max": [
        0.875,
        1.0
      ],
      "min": [
        0.125,
        0.0
      ],
      "type": "VEC2"
    },
    {
      "bufferView": 0,
      "byteOffset": 482544,
      "componentType": 5125,
      "count": 36,
      "type": "SCALAR"
    },
    {
      "bufferView": 2,
      "byteOffset": 1888560,
      "componentType": 5126,
      "count": 24,
      "max": [
        1.0,
        1.0,
        75.19709014892578
      ],
      "min": [
        -1.0,
        -1.0,
        -1.0
      ],
      "type": "VEC3"
    },
    {
      "bufferView": 2,
      "byteOffset": 1888848,
      "componentType": 5126,
      "count": 24,
      "max": [
        1.0,
        0.9997740387916565,
        0.9990299344062805
      ],
      "min": [
        -1.0,
        -1.0,
        -1.0
      ],
      "type": "VEC3"
    },
    {
      "bufferView": 1,
      "byteOffset": 629520,
      "componentType": 5126,
      "count": 24,
      "max": [
        0.875,
        1.0
      ],
      "min": [
        0.125,
        0.0
      ],
      "type": "VEC2"
    },
    {
      "bufferView": 0,
      "byteOffset": 482688,
      "componentType": 5125,
      "count": 36,
      "type": "SCALAR"
    },
    {
      "bufferView": 2,
      "byteOffset": 1889136,
      "componentType": 5126,
      "count": 637,
      "max": [
        1.25,
        1.25,
        0.25
      ],
      "min": [
        -1.25,
        -1.25,
        -0.25
      ],
      "type": "VEC3"
    },
    {
      "bufferView": 2,
      "byteOffset": 1896780,
      "componentType": 5126,
      "count": 637,
      "max": [
        1.0,
        1.0,
        0.9999423027038574
      ],
      "min": [
        -1.0,
        -1.0,
        -0.9999423027038574
      ],
      "type": "VEC3"
    },
    {
      "bufferView": 1,
      "byteOffset": 629712,
      "componentType": 5126,
      "count": 637,
      "max": [
        1.0,
        1.0
      ],
      "min": [
        8.881784197001252e-16,
        2.220446049250313e-16
      ],
      "type": "VEC2"
    },
    {
      "bufferView": 0,
      "byteOffset": 482832,
      "componentType": 5125,
      "count": 3456,
      "type": "SCALAR"
    },
    {
      "bufferView": 2,
      "byteOffset": 1904424,
      "componentType": 5126,
      "count": 130,
      "max": [
        1.0,
        1.0,
        4.159152030944824
      ],
      "min": [
        -1.0,
        -1.0,
        -1.0
      ],
      "type": "VEC3"
    },
    {
      "bufferView": 2,
      "byteOffset": 1905984,
      "componentType": 5126,
      "count": 130,
      "max": [
        0.9995014667510986,
        0.9995015263557434,
        1.0
      ],
      "min": [
        -0.9995014667510986,
        -0.9995015263557434,
        -1.0
      ],
      "type": "VEC3"
    },
    {
      "bufferView": 1,
      "byteOffset": 634808,
      "componentType": 5126,
      "count": 130,
      "max": [
        1.0,
        1.0
      ],
      "min": [
        0.0,
        0.01000000536441803
      ],
      "type": "VEC2"
    },
    {
      "bufferView": 0,
      "byteOffset": 496656,
      "componentType": 5125,
      "count": 372,
      "type": "SCALAR"
    },
    {
      "bufferView": 2,
      "byteOffset": 1907544,
      "componentType": 5126,
      "count": 611,
      "max": [
        1.1219723224639893,
        1.1219724416732788,
        18.776203155517578
      ],
      "min": [
        -1.1219724416732788,
        -1.1219724416732788,
        -1.0
      ],
      "type": "VEC3"
    },
    {
      "bufferView": 2,
      "byteOffset": 1914876,
      "componentType": 5126,
      "count": 611,
      "max": [
        1.0,
        1.0,
        1.0
      ],
      "min": [
        -1.0,
        -1.0,
        -1.0
      ],
      "type": "VEC3"
    },
    {
      "bufferView": 1,
      "byteOffset": 635848,
      "componentType": 5126,
      "count": 611,
      "max": [
        1.0000007152557373,
        1.0
      ],
      "min": [
        -7.471592198271537e-07,
        0.0
      ],
      "type": "VEC2"
    },
    {
      "bufferView": 0,
      "byteOffset": 498144,
      "componentType": 5125,
      "count": 1794,
      "type": "SCALAR"
    },
    {
      "bufferView": 2,
      "byteOffset": 1922208,
      "componentType": 5126,
      "count": 184,
      "max": [
        1.1219723224639893,
        1.1219724416732788,
        37.496639251708984
      ],
      "min": [
        -1.1219724416732788,
        -1.1219724416732788,
        3.4458725452423096
      ],
      "type": "VEC3"
    },
    {
      "bufferView": 2,
      "byteOffset": 1924416,
      "componentType": 5126,
      "count": 184,
      "max": [
        1.0,
        1.0,
        1.0
      ],
      "min": [
        -1.0,
        -1.0,
        0.0
      ],
      "type": "VEC3"
    },
    {
      "bufferView": 1,
      "byteOffset": 640736,
      "componentType": 5126,
      "count": 184,
      "max": [
        1.0,
        1.0
      ],
      "min": [
        0.0,
        0.0
      ],
      "type": "VEC2"
    },
    {
      "bufferView": 0,
      "byteOffset": 505320,
      "componentType": 5125,
      "count": 654,
      "type": "SCALAR"
    },
    {
      "bufferView": 2,
      "byteOffset": 1926624,
      "componentType": 5126,
      "count": 132,
      "max": [
        1.0899842977523804,
        1.08998441696167,
        3.308131456375122
      ],
      "min": [
        -1.08998441696167,
        -1.08998441696167,
        -0.9158034920692444
      ],
      "type": "VEC3"
    },
    {
      "bufferView": 2,
      "byteOffset": 1928208,
      "componentType": 5126,
      "count": 132,
      "max": [
        1.0,
        1.0,
        0.0
      ],
      "min": [
        -1.0,
        -1.0,
        -0.04985463246703148
      ],
      "type": "VEC3"
    },
    {
      "bufferView": 1,
      "byteOffset": 642208,
      "componentType": 5126,
      "count": 132,
      "max": [
        1.0000007152557373,
        1.0
      ],
      "min": [
        -7.471592198271537e-07,
        0.5174221992492676
      ],
      "type": "VEC2"
    },
    {
      "bufferView": 0,
      "byteOffset": 507936,
      "componentType": 5125,
      "count": 384,
      "type": "SCALAR"
    }
  ],
  "asset": {
    "extras": {
      "author": "jayden.ot111 (https://sketchfab.com/jayden.ot111)",
      "license": "CC-BY-4.0 (http://creativecommons.org/licenses/by/4.0/)",
      "source": "https://sketchfab.com/3d-models/cn-tower-7abf3849d3b1460bb8332e473275a249",
      "title": "cn-tower"
    },
    "generator": "Sketchfab-15.58.0",
    "version": "2.0"
  },
  "bufferViews": [
    {
      "buffer": 0,
      "byteLength": 509472,
      "name": "floatBufferViews",
      "target": 34963
    },
    {
      "buffer": 0,
      "byteLength": 643264,
      "byteOffset": 509472,
      "byteStride": 8,
      "name": "floatBufferViews",
      "target": 34962
    },
    {
      "buffer": 0,
      "byteLength": 1929792,
      "byteOffset": 1152736,
      "byteStride": 12,
      "name": "floatBufferViews",
      "target": 34962
    }
  ],
  "buffers": [
    {
      "byteLength": 3082528,
      "uri": "scene6.bin"
    }
  ],
  "materials": [
    {
      "doubleSided": true,
      "name": "Torus.001__0",
      "pbrMetallicRoughness": {
        "metallicFactor": 0.0
      }
    },
    {
      "doubleSided": true,
      "name": "Material.004",
      "pbrMetallicRoughness": {
        "metallicFactor": 0.0,
        "roughnessFactor": 0.7763932022500211
      }
    },
    {
      "doubleSided": true,
      "name": "Material.005",
      "pbrMetallicRoughness": {
        "baseColorFactor": [
          0.0020002972562952973,
          0.21223939046723445,
          0.30026978286695144,
          1.0
        ],
        "metallicFactor": 0.0,
        "roughnessFactor": 0.0
      }
    },
    {
      "doubleSided": true,
      "name": "Material.008",
      "pbrMetallicRoughness": {
        "baseColorFactor": [
          0.40990987343505997,
          0.3322386557708227,
          0.27328304368643147,
          1.0
        ],
        "metallicFactor": 0.0,
        "roughnessFactor": 0.0
      }
    },
    {
      "doubleSided": true,
      "name": "Material.009",
      "pbrMetallicRoughness": {
        "baseColorFactor": [
          0.8,
          0.8,
          0.8,
          1.0
        ],
        "metallicFactor": 0.0,
        "roughnessFactor": 0.0
      }
    },
    {
      "doubleSided": true,
      "name": "Material.007",
      "pbrMetallicRoughness": {
        "baseColorFactor": [
          0.048640233792502874,
          0.38154018065253775,
          0.8282921100667165,
          1.0
        ],
        "metallicFactor": 0.0,
        "roughnessFactor": 0.0
      }
    }
  ],
  "meshes": [
    {
      "name": "Cylinder_Material.004_0",
      "primitives": [
        {
          "attributes": {
            "NORMAL": 1,
            "POSITION": 0,
            "TEXCOORD_0": 2
          },
          "indices": 3,
          "material": 1,
          "mode": 4
        }
      ]
    },
    {
      "name": "Cylinder_Material.005_0",
      "primitives": [
        {
          "attributes": {
            "NORMAL": 5,
            "POSITION": 4,
            "TEXCOORD_0": 6
          },
          "indices": 7,
          "material": 2,
          "mode": 4
        }
      ]
    },
    {
      "name": "Cube_Material.008_0",
      "primitives": [
        {
          "attributes": {
            "NORMAL": 9,
            "POSITION": 8,
            "TEXCOORD_0": 10
          },
          "indices": 11,
          "material": 3,
          "mode": 4
        }
      ]
    },
    {
      "name": "Cube.001_Material.008_0",
      "primitives": [
        {
          "attributes": {
            "NORMAL": 13,
            "POSITION": 12,
            "TEXCOORD_0": 14
          },
          "indices": 15,
          "material": 3,
          "mode": 4
        }
      ]
    },
    {
      "name": "Cube.002_Material.008_0",
      "primitives": [
        {
          "attributes": {
            "NORMAL": 17,
            "POSITION": 16,
            "TEXCOORD_0": 18
          },
          "indices": 19,
          "material": 3,
          "mode": 4
        }
      ]
    },
    {
      "name": "Torus.001__0",
      "primitives": [
        {
          "attributes": {
            "NORMAL": 21,
            "POSITION": 20,
            "TEXCOORD_0": 22
          },
          "indices": 23,
          "material": 0,
          "mode": 4
        }
      ]
    },
    {
      "name": "Cylinder.001__0",
      "primitives": [
        {
          "attributes": {
            "NORMAL": 25,
            "POSITION": 24,
            "TEXCOORD_0": 26
          },
          "indices": 27,
          "material": 0,
          "mode": 4
        }
      ]
    },
    {
      "name": "Cylinder.002_Material.008_0",
      "primitives": [
        {
          "attributes": {
            "NORMAL": 29,
            "POSITION": 28,
            "TEXCOORD_0": 30
          },
          "indices": 31,
          "material": 3,
          "mode": 4
        }
      ]
    },
    {
      "name": "Cylinder.002_Material.009_0",
      "primitives": [
        {
          "attributes": {
            "NORMAL": 33,
            "POSITION": 32,
            "TEXCOORD_0": 34
          },
          "indices": 35,
          "material": 4,
          "mode": 4
        }
      ]
    },
    {
      "name": "Cylinder.002_Material.007_0",
      "primitives": [
        {
          "attributes": {
            "NORMAL": 37,
            "POSITION": 36,
            "TEXCOORD_0": 38
          },
          "indices": 39,
          "material": 5,
          "mode": 4
        }
      ]
    }
  ],
  "nodes": [
    {
      "children": [
        1
      ],
      "matrix": [
        1.0,
        0.0,
        0.0,
        0.0,
        0.0,
        2.220446049250313e-16,
        -1.0,
        0.0,
        0.0,
        1.0,
        2.220446049250313e-16,
        0.0,
        0.0,
        0.0,
        0.0,
        1.0
      ],
      "name": "Sketchfab_model"
    },
    {
      "children": [
        2
      ],
      "matrix": [
        0.009999999776482582,
        0.0,
        0.0,
        0.0,
        0.0,
        0.0,
        0.009999999776482582,
        0.0,
        0.0,
        -0.009999999776482582,
        0.0,
        0.0,
        0.0,
        0.0,
        0.0,
        1.0
      ],
      "name": "CN tower.fbx"
    },
    {
      "children": [
        3,
        6,
        8,
        10,
        12,
        14,
        16
      ],
      "name": "RootNode"
    },
    {
      "children": [
        4,
        5
      ],
      "matrix": [
        34.835655212402344,
        0.0,
        0.0,
        0.0,
        0.0,
        -5.675448614264183e-06,
        -34.83565521240188,
        0.0,
        0.0,
        20.902242660522184,
        -3.405407575065241e-06,
        0.0,
        0.0,
        35.491092681884766,
        0.0,
        1.0
      ],
      "name": "Cylinder"
    },
    {
      "mesh": 0,
      "name": "Cylinder_Material.004_0"
    },
    {
      "mesh": 1,
      "name": "Cylinder_Material.005_0"
    },
    {
      "children": [
        7
      ],
      "matrix": [
        18.782697677612305,
        0.0,
        0.0,
        0.0,
        0.0,
        -1.629206793918314e-05,
        -99.99999999999868,
        0.0,
        0.0,
        16.472663879394315,
        -2.6837375906242383e-06,
        0.0,
        0.0,
        29.660114288330078,
        -107.17025756835938,
        1.0
      ],
      "name": "Cube"
    },
    {
      "mesh": 2,
      "name": "Cube_Material.008_0"
    },
    {
      "children": [
        9
      ],
      "matrix": [
        -14.268072603407305,
        -1.2914104381596306e-06,
        -12.215229683983797,
        0.0,
        -65.03447957075711,
        1.3584415392564608e-05,
        75.96391555837938,
        0.0,
        5.949317254347797e-07,
        16.47266387939434,
        -2.4364256684651045e-06,
        0.0,
        -73.53797912597656,
        29.660114288330078,
        78.84727478027344,
        1.0
      ],
      "name": "Cube.001"
    },
    {
      "mesh": 3,
      "name": "Cube.001_Material.008_0"
    },
    {
      "children": [
        11
      ],
      "matrix": [
        -12.215229854128864,
        1.0426491713129318e-15,
        14.268072457742205,
        0.0,
        75.96391478285231,
        -4.371139006309477e-06,
        65.03448047661743,
        0.0,
        5.469728778901425e-07,
        16.472663879394513,
        4.682762467704356e-07,
        0.0,
        84.04441833496094,
        29.660114288330078,
        72.70204162597656,
        1.0
      ],
      "name": "Cube.002"
    },
    {
      "mesh": 4,
      "name": "Cube.002_Material.008_0"
    },
    {
      "children": [
        13
      ],
      "matrix": [
        100.0,
        0.0,
        0.0,
        0.0,
        0.0,
        -1.629206793918314e-05,
        -99.99999999999868,
        0.0,
        0.0,
        135.46128845214665,
        -2.206944514591687e-05,
        0.0,
        0.0,
        1272.3499755859375,
        0.0,
        1.0
      ],
      "name": "Torus.001"
    },
    {
      "mesh": 5,
      "name": "Torus.001__0"
    },
    {
      "children": [
        15
      ],
      "matrix": [
        100.0,
        0.0,
        0.0,
        0.0,
        0.0,
        -1.629206793918314e-05,
        -99.99999999999868,
        0.0,
        0.0,
        14.017141342162901,
        -2.2836821905965376e-06,
        0.0,
        0.0,
        1316.0380859375,
        0.0,
        1.0
      ],
      "name": "Cylinder.001"
    },
    {
      "mesh": 6,
      "name": "Cylinder.001__0"
    },
    {
      "children": [
        17,
        18,
        19
      ],
      "matrix": [
        132.0772705078125,
        0.0,
        0.0,
        0.0,
        0.0,
        -2.151811864335151e-05,
        -132.07727050781077,
        0.0,
        0.0,
        21.93405532836885,
        -3.5735111959159203e-06,
        0.0,
        0.0,
        1358.0584716796875,
        0.0,
        1.0
      ],
      "name": "Cylinder.002"
    },
    {
      "mesh": 7,
      "name": "Cylinder.002_Material.008_0"
    },
    {
      "mesh": 8,
      "name": "Cylinder.002_Material.009_0"
    },
    {
      "mesh": 9,
      "name": "Cylinder.002_Material.007_0"
    }
  ],
  "scene": 0,
  "scenes": [
    {
      "name": "Sketchfab_Scene",
      "nodes": [
        0
      ]
    }
  ]
}
